<?xml version="1.0" standalone="no"?>
<!DOCTYPE svg PUBLIC "-//W3C//DTD SVG 20010904//EN"
 "http://www.w3.org/TR/2001/REC-SVG-20010904/DTD/svg10.dtd">
<svg version="1.0" xmlns="http://www.w3.org/2000/svg"
 width="228.000000pt" height="100.000000pt" viewBox="0 0 228.000000 100.000000"
 preserveAspectRatio="xMidYMid meet">
<metadata>
Created by potrace 1.16, written by Peter Selinger 2001-2019
</metadata>
<g transform="translate(0.000000,100.000000) scale(0.100000,-0.100000)"
fill="#000000" stroke="none">
<path d="M17 989 c-10 -6 -17 -22 -17 -38 0 -51 183 -208 460 -396 l163 -110
-49 -6 c-103 -13 -219 -65 -269 -120 -48 -53 -47 -82 5 -103 34 -13 40 -20 40
-45 0 -36 40 -71 80 -71 37 0 80 35 80 66 0 13 3 24 6 24 3 0 26 -17 52 -39
72 -59 102 -71 184 -71 118 0 287 19 367 41 l74 21 106 -41 c222 -84 330 -110
413 -97 49 7 65 27 54 64 -6 19 -124 102 -145 102 -8 0 -12 3 -9 6 13 12 469
34 511 24 84 -19 157 -8 157 25 0 7 -26 36 -57 65 l-58 51 -5 177 c-6 203 0
194 -108 172 -49 -10 -64 -20 -108 -64 -37 -38 -56 -68 -69 -109 l-18 -56 -43
1 c-82 4 -93 -44 -23 -100 21 -17 29 -32 29 -56 0 -53 -9 -56 -184 -56 l-161
0 -110 52 -110 52 3 219 4 219 -23 -4 c-24 -3 -24 -6 -27 -124 l-3 -121 -110
-12 -110 -13 -167 111 c-331 220 -513 314 -692 357 -66 16 -89 17 -113 3z"/>
</g>
</svg>
